<svg xmlns="http://www.w3.org/2000/svg" width="14" height="16" viewBox="0 0 14 16" fill="none">
<path d="M2.99967 12C2.99967 12.3667 3.29967 12.6667 3.66634 12.6667H4.33301V15C4.33301 15.5533 4.77967 16 5.33301 16C5.88634 16 6.33301 15.5533 6.33301 15V12.6667H7.66634V15C7.66634 15.5533 8.11301 16 8.66634 16C9.21968 16 9.66634 15.5533 9.66634 15V12.6667H10.333C10.6997 12.6667 10.9997 12.3667 10.9997 12V5.33333H2.99967V12ZM1.33301 5.33333C0.779675 5.33333 0.333008 5.78 0.333008 6.33333V11C0.333008 11.5533 0.779675 12 1.33301 12C1.88634 12 2.33301 11.5533 2.33301 11V6.33333C2.33301 5.78 1.88634 5.33333 1.33301 5.33333ZM12.6663 5.33333C12.113 5.33333 11.6663 5.78 11.6663 6.33333V11C11.6663 11.5533 12.113 12 12.6663 12C13.2197 12 13.6663 11.5533 13.6663 11V6.33333C13.6663 5.78 13.2197 5.33333 12.6663 5.33333ZM9.35301 1.44L10.2197 0.573333C10.353 0.44 10.353 0.233333 10.2197 0.1C10.0863 -0.0333333 9.87967 -0.0333333 9.74634 0.1L8.75968 1.08667C8.23301 0.82 7.63301 0.666667 6.99967 0.666667C6.35967 0.666667 5.75967 0.82 5.22634 1.08667L4.23301 0.1C4.09967 -0.0333333 3.89301 -0.0333333 3.75967 0.1C3.62634 0.233333 3.62634 0.44 3.75967 0.573333L4.63301 1.44667C3.64634 2.17333 2.99967 3.34 2.99967 4.66667H10.9997C10.9997 3.34 10.353 2.16667 9.35301 1.44ZM5.66634 3.33333H4.99967V2.66667H5.66634V3.33333ZM8.99967 3.33333H8.33301V2.66667H8.99967V3.33333Z" />
</svg>