<svg width="13" height="13" viewBox="0 0 13 13" fill="none" xmlns="http://www.w3.org/2000/svg">
    <path d="M12.7469 2.32147V3.59226H10.8407V5.49845H9.56992V3.59226H7.66373V2.32147H9.56992V0.415283H10.8407V2.32147H12.7469ZM10.8407 11.217H1.94517V2.32147H5.75754V1.05068H1.94517C1.24623 1.05068 0.674377 1.62254 0.674377 2.32147V11.217C0.674377 11.9159 1.24623 12.4878 1.94517 12.4878H10.8407C11.5396 12.4878 12.1115 11.9159 12.1115 11.217V7.40464H10.8407V11.217ZM8.29913 7.40464V9.94622H9.56992V7.40464H8.29913ZM5.75754 9.94622H7.02834V4.86305H5.75754V9.94622ZM4.48675 9.94622V6.13385H3.21596V9.94622H4.48675Z"
          fill="currentColor" fill-opacity="0.87"/>
</svg>
