<svg width="21" height="21" viewBox="0 0 21 21" fill="none" xmlns="http://www.w3.org/2000/svg">
    <g clip-path="url(#clip0_11662_4980)">
        <path d="M10.1704 2.43591C5.57037 2.43591 1.83704 6.16925 1.83704 10.7692C1.83704 15.3692 5.57037 19.1026 10.1704 19.1026C14.7704 19.1026 18.5037 15.3692 18.5037 10.7692C18.5037 6.16925 14.7704 2.43591 10.1704 2.43591ZM10.1704 17.4359C6.49537 17.4359 3.5037 14.4442 3.5037 10.7692C3.5037 7.09425 6.49537 4.10258 10.1704 4.10258C13.8454 4.10258 16.837 7.09425 16.837 10.7692C16.837 14.4442 13.8454 17.4359 10.1704 17.4359ZM10.4287 10.0526C8.9537 9.67758 8.4787 9.26925 8.4787 8.66091C8.4787 7.96091 9.13704 7.46925 10.2287 7.46925C11.3787 7.46925 11.812 8.01925 11.8454 8.83591H13.2704C13.2287 7.71925 12.5454 6.69425 11.1954 6.36091V4.93591H9.2537V6.34425C7.99537 6.61091 6.98704 7.42758 6.98704 8.68591C6.98704 10.1776 8.2287 10.9276 10.037 11.3609C11.662 11.7442 11.987 12.3192 11.987 12.9192C11.987 13.3609 11.662 14.0776 10.237 14.0776C8.9037 14.0776 8.3787 13.4776 8.3037 12.7109H6.87037C6.9537 14.1276 8.0037 14.9276 9.2537 15.1859V16.6026H11.2037V15.2109C12.4704 14.9692 13.4704 14.2442 13.4787 12.9026C13.4704 11.0692 11.8954 10.4359 10.4287 10.0526Z"
              fill="currentColor"/>
    </g>
    <defs>
        <clipPath id="clip0_11662_4980">
            <rect width="20" height="20" fill="currentColor" transform="translate(0.17041 0.769287)"/>
        </clipPath>
    </defs>
</svg>
