<svg xmlns="http://www.w3.org/2000/svg" width="23" height="19" viewBox="0 0 23 19" fill="none">
  <path d="M0.5 18.3564V16.3564H22.5V18.3564H0.5ZM3.5 15.3564C2.95 15.3564 2.47917 15.1606 2.0875 14.7689C1.69583 14.3773 1.5 13.9064 1.5 13.3564V2.35645C1.5 1.80645 1.69583 1.33561 2.0875 0.943945C2.47917 0.552279 2.95 0.356445 3.5 0.356445H19.5C20.05 0.356445 20.5208 0.552279 20.9125 0.943945C21.3042 1.33561 21.5 1.80645 21.5 2.35645V13.3564C21.5 13.9064 21.3042 14.3773 20.9125 14.7689C20.5208 15.1606 20.05 15.3564 19.5 15.3564H3.5ZM3.5 13.3564H19.5V2.35645H3.5V13.3564Z" />
</svg>