<svg width="16" height="16" viewBox="0 0 16 16" fill="none" xmlns="http://www.w3.org/2000/svg">
    <g clip-path="url(#clip0_10320_81983)">
        <path d="M11.2345 2.05066C10.129 2.05066 9.06784 2.56533 8.37526 3.37864C7.68268 2.56533 6.62157 2.05066 5.51598 2.05066C3.55896 2.05066 2.0213 3.58832 2.0213 5.54534C2.0213 7.94713 4.18165 9.90415 7.45394 12.8778L8.37526 13.7102L9.29658 12.8715C12.5689 9.90415 14.7292 7.94713 14.7292 5.54534C14.7292 3.58832 13.1916 2.05066 11.2345 2.05066ZM8.4388 11.9311L8.37526 11.9946L8.31172 11.9311C5.28724 9.19251 3.29209 7.38163 3.29209 5.54534C3.29209 4.27454 4.24519 3.32145 5.51598 3.32145C6.49449 3.32145 7.44758 3.95049 7.78434 4.82099H8.97253C9.30294 3.95049 10.256 3.32145 11.2345 3.32145C12.5053 3.32145 13.4584 4.27454 13.4584 5.54534C13.4584 7.38163 11.4633 9.19251 8.4388 11.9311Z"
              fill="currentColor"/>
    </g>
    <defs>
        <clipPath id="clip0_10320_81983">
            <rect width="15.2495" height="15.2495" fill="currentColor" transform="translate(0.750488 0.144531)"/>
        </clipPath>
    </defs>
</svg>
