<svg width="34" height="23" viewBox="0 0 34 23" fill="none" xmlns="http://www.w3.org/2000/svg">
    <path d="M0 11.6261C0 9.53149 1.697 7.83244 3.79157 7.83244C5.88615 7.83244 7.58554 6.1351 7.58554 4.04053C7.58554 1.9463 9.28458 0.246904 11.3792 0.246904C13.4737 0.246904 15.1707 1.9463 15.1707 4.04053C15.1707 6.1351 13.4737 7.83244 11.3792 7.83244C9.28458 7.83244 7.58554 9.53149 7.58554 11.6261C7.58554 13.7206 9.28458 15.4176 11.3792 15.4176C13.4737 15.4176 15.1707 17.117 15.1707 19.2116C15.1707 21.3058 13.4737 23.0032 11.3792 23.0032C9.28458 23.0032 7.58554 21.3058 7.58554 19.2116C7.58554 17.117 5.88615 15.4176 3.79157 15.4176C1.697 15.4176 0 13.7206 0 11.6261Z"
          fill="currentColor"/>
    <path d="M34 11.624C34 13.7186 32.303 15.4176 30.2084 15.4176C28.1138 15.4176 26.4148 17.115 26.4148 19.2096C26.4148 21.3038 24.7154 23.0032 22.6208 23.0032C20.5262 23.0032 18.8292 21.3038 18.8292 19.2096C18.8292 17.115 20.5262 15.4176 22.6208 15.4176C24.7154 15.4176 26.4148 13.7186 26.4148 11.624C26.4148 9.52944 24.7154 7.83244 22.6208 7.83244C20.5262 7.83244 18.8292 6.13305 18.8292 4.03848C18.8292 1.94425 20.5262 0.246904 22.6208 0.246904C24.7154 0.246904 26.4148 1.94425 26.4148 4.03848C26.4148 6.13305 28.1138 7.83244 30.2084 7.83244C32.303 7.83244 34 9.52944 34 11.624Z"
          fill="currentColor"/>
    <path d="M17.036 15.2529C19.0716 15.2529 20.7219 13.6026 20.7219 11.5671C20.7219 9.53113 19.0716 7.88084 17.036 7.88084C15.0001 7.88084 13.3502 9.53113 13.3502 11.5671C13.3502 13.6026 15.0001 15.2529 17.036 15.2529Z"
          fill="currentColor"/>
</svg>
