<svg xmlns="http://www.w3.org/2000/svg" width="25" height="25" viewBox="0 0 25 25" fill="none">
  <path d="M12.5 21.3564C10 21.3564 7.875 20.4814 6.125 18.7314C4.375 16.9814 3.5 14.8564 3.5 12.3564C3.5 9.85645 4.375 7.73145 6.125 5.98145C7.875 4.23145 10 3.35645 12.5 3.35645C12.7333 3.35645 12.9625 3.36478 13.1875 3.38145C13.4125 3.39811 13.6333 3.42311 13.85 3.45645C13.1667 3.93978 12.6208 4.56895 12.2125 5.34395C11.8042 6.11895 11.6 6.95645 11.6 7.85645C11.6 9.35645 12.125 10.6314 13.175 11.6814C14.225 12.7314 15.5 13.2564 17 13.2564C17.9167 13.2564 18.7583 13.0523 19.525 12.6439C20.2917 12.2356 20.9167 11.6898 21.4 11.0064C21.4333 11.2231 21.4583 11.4439 21.475 11.6689C21.4917 11.8939 21.5 12.1231 21.5 12.3564C21.5 14.8564 20.625 16.9814 18.875 18.7314C17.125 20.4814 15 21.3564 12.5 21.3564ZM12.5 19.3564C13.9667 19.3564 15.2833 18.9523 16.45 18.1439C17.6167 17.3356 18.4667 16.2814 19 14.9814C18.6667 15.0648 18.3333 15.1314 18 15.1814C17.6667 15.2314 17.3333 15.2564 17 15.2564C14.95 15.2564 13.2042 14.5356 11.7625 13.0939C10.3208 11.6523 9.6 9.90645 9.6 7.85645C9.6 7.52311 9.625 7.18978 9.675 6.85645C9.725 6.52311 9.79167 6.18978 9.875 5.85645C8.575 6.38978 7.52083 7.23978 6.7125 8.40645C5.90417 9.57311 5.5 10.8898 5.5 12.3564C5.5 14.2898 6.18333 15.9398 7.55 17.3064C8.91667 18.6731 10.5667 19.3564 12.5 19.3564Z" />
</svg>