<svg width="16" height="20" viewBox="0 0 16 20" fill="none" xmlns="http://www.w3.org/2000/svg">
    <path d="M8 19.625C9.1 19.625 10 18.725 10 17.625H6C6 18.725 6.9 19.625 8 19.625ZM14 13.625V8.625C14 5.555 12.37 2.985 9.5 2.305V1.625C9.5 0.795 8.83 0.125 8 0.125C7.17 0.125 6.5 0.795 6.5 1.625V2.305C3.64 2.985 2 5.545 2 8.625V13.625L0 15.625V16.625H16V15.625L14 13.625ZM12 14.625H4V8.625C4 6.145 5.51 4.125 8 4.125C10.49 4.125 12 6.145 12 8.625V14.625Z"
          fill="currentColor" fill-opacity="0.6"/>
</svg>
