<svg width="21" height="21" viewBox="0 0 21 21" fill="none" xmlns="http://www.w3.org/2000/svg">
    <g clip-path="url(#clip0_11662_5190)">
        <path d="M14.8787 6.06099C13.6704 4.85266 12.0121 4.10266 10.1704 4.10266C6.48708 4.10266 3.51208 7.08599 3.51208 10.7693C3.51208 14.4527 6.48708 17.436 10.1704 17.436C13.2788 17.436 15.8704 15.311 16.6121 12.436H14.8787C14.1954 14.3777 12.3454 15.7693 10.1704 15.7693C7.41208 15.7693 5.17042 13.5277 5.17042 10.7693C5.17042 8.01099 7.41208 5.76933 10.1704 5.76933C11.5538 5.76933 12.7871 6.34433 13.6871 7.25266L11.0038 9.93599H16.8371V4.10266L14.8787 6.06099Z"
              fill="currentColor" fill-opacity="0.6"/>
    </g>
    <defs>
        <clipPath id="clip0_11662_5190">
            <rect width="20" height="20" fill="currentColor" transform="translate(0.17041 0.769287)"/>
        </clipPath>
    </defs>
</svg>
