<svg xmlns="http://www.w3.org/2000/svg" width="14" height="14" viewBox="0 0 14 14" fill="none">
<path d="M2.76621 5.68292L4.06621 6.23292C4.22177 5.9218 4.38288 5.6218 4.54954 5.33292C4.71621 5.04403 4.89954 4.75514 5.09954 4.46625L4.16621 4.28292L2.76621 5.68292ZM5.13288 7.06625L7.03288 8.94958C7.49954 8.7718 7.99954 8.49958 8.53288 8.13292C9.06621 7.76625 9.56621 7.34958 10.0329 6.88292C10.8107 6.10514 11.419 5.24125 11.8579 4.29125C12.2968 3.34125 12.4884 2.46625 12.4329 1.66625C11.6329 1.61069 10.7551 1.80236 9.79954 2.24125C8.84399 2.68014 7.97732 3.28847 7.19954 4.06625C6.73288 4.53292 6.31621 5.03292 5.94954 5.56625C5.58288 6.09958 5.31066 6.59958 5.13288 7.06625ZM8.09954 5.98292C7.84399 5.72736 7.71621 5.41347 7.71621 5.04125C7.71621 4.66903 7.84399 4.35514 8.09954 4.09958C8.3551 3.84403 8.67177 3.71625 9.04954 3.71625C9.42732 3.71625 9.74399 3.84403 9.99955 4.09958C10.2551 4.35514 10.3829 4.66903 10.3829 5.04125C10.3829 5.41347 10.2551 5.72736 9.99955 5.98292C9.74399 6.23847 9.42732 6.36625 9.04954 6.36625C8.67177 6.36625 8.3551 6.23847 8.09954 5.98292ZM8.41621 11.3329L9.81621 9.93292L9.63288 8.99958C9.34399 9.19958 9.0551 9.38014 8.76621 9.54125C8.47732 9.70236 8.17732 9.86069 7.86621 10.0162L8.41621 11.3329ZM13.6329 0.449582C13.844 1.79403 13.7134 3.10236 13.2412 4.37458C12.769 5.6468 11.9551 6.86069 10.7995 8.01625L11.1329 9.66625C11.1773 9.88847 11.1662 10.1051 11.0995 10.3162C11.0329 10.5274 10.9218 10.7107 10.7662 10.8662L7.96621 13.6662L6.56621 10.3829L3.71621 7.53292L0.432878 6.13292L3.21621 3.33292C3.37177 3.17736 3.55788 3.06625 3.77454 2.99958C3.99121 2.93292 4.21066 2.9218 4.43288 2.96625L6.08288 3.29958C7.23843 2.14403 8.44954 1.32736 9.71621 0.849582C10.9829 0.371804 12.2884 0.238471 13.6329 0.449582ZM1.61621 9.64958C2.0051 9.26069 2.4801 9.06347 3.04121 9.05792C3.60232 9.05236 4.07732 9.24403 4.46621 9.63292C4.8551 10.0218 5.04677 10.4968 5.04121 11.0579C5.03566 11.619 4.83843 12.094 4.44954 12.4829C4.17177 12.7607 3.70788 12.9996 3.05788 13.1996C2.40788 13.3996 1.51066 13.5774 0.366211 13.7329C0.521766 12.5885 0.699544 11.6912 0.899544 11.0412C1.09954 10.3912 1.33843 9.92736 1.61621 9.64958ZM2.56621 10.5829C2.4551 10.694 2.34399 10.8968 2.23288 11.1912C2.12177 11.4857 2.04399 11.7829 1.99954 12.0829C2.29954 12.0385 2.59677 11.9635 2.89121 11.8579C3.18566 11.7524 3.38843 11.644 3.49954 11.5329C3.63288 11.3996 3.7051 11.2385 3.71621 11.0496C3.72732 10.8607 3.66621 10.6996 3.53288 10.5662C3.39954 10.4329 3.23843 10.369 3.04954 10.3746C2.86066 10.3801 2.69954 10.4496 2.56621 10.5829Z" />
</svg>