<svg xmlns="http://www.w3.org/2000/svg" width="14" height="15" viewBox="0 0 14 15" fill="none">
<path d="M7.00004 14.1666C6.08893 14.1666 5.22782 13.9916 4.41671 13.6416C3.6056 13.2916 2.89726 12.8138 2.29171 12.2083C1.68615 11.6027 1.20837 10.8944 0.858374 10.0833C0.508374 9.27214 0.333374 8.41103 0.333374 7.49992C0.333374 6.5777 0.508374 5.71381 0.858374 4.90825C1.20837 4.1027 1.68615 3.39714 2.29171 2.79159C2.89726 2.18603 3.6056 1.70825 4.41671 1.35825C5.22782 1.00825 6.08893 0.833252 7.00004 0.833252C7.18893 0.833252 7.34726 0.897141 7.47504 1.02492C7.60282 1.1527 7.66671 1.31103 7.66671 1.49992C7.66671 1.68881 7.60282 1.84714 7.47504 1.97492C7.34726 2.1027 7.18893 2.16659 7.00004 2.16659C5.52226 2.16659 4.26393 2.68603 3.22504 3.72492C2.18615 4.76381 1.66671 6.02214 1.66671 7.49992C1.66671 8.9777 2.18615 10.236 3.22504 11.2749C4.26393 12.3138 5.52226 12.8333 7.00004 12.8333C8.47782 12.8333 9.73615 12.3138 10.775 11.2749C11.8139 10.236 12.3334 8.9777 12.3334 7.49992C12.3334 7.31103 12.3973 7.1527 12.525 7.02492C12.6528 6.89714 12.8112 6.83325 13 6.83325C13.1889 6.83325 13.3473 6.89714 13.475 7.02492C13.6028 7.1527 13.6667 7.31103 13.6667 7.49992C13.6667 8.41103 13.4917 9.27214 13.1417 10.0833C12.7917 10.8944 12.3139 11.6027 11.7084 12.2083C11.1028 12.8138 10.3973 13.2916 9.59171 13.6416C8.78615 13.9916 7.92226 14.1666 7.00004 14.1666Z"/>
</svg>