<svg width="21" height="21" viewBox="0 0 21 21" fill="none" xmlns="http://www.w3.org/2000/svg">
    <g clip-path="url(#clip0_11662_5167)">
        <path d="M13.6288 11.6026C14.2538 11.6026 14.8038 11.2609 15.0871 10.7442L18.0704 5.33591C18.3788 4.78591 17.9788 4.10258 17.3455 4.10258H5.01212L4.22878 2.43591H1.50378V4.10258H3.17045L6.17045 10.4276L5.04545 12.4609C4.43712 13.5776 5.23712 14.9359 6.50378 14.9359H16.5038V13.2692H6.50378L7.42045 11.6026H13.6288ZM5.80378 5.76925H15.9288L13.6288 9.93591H7.77878L5.80378 5.76925ZM6.50378 15.7692C5.58712 15.7692 4.84545 16.5192 4.84545 17.4359C4.84545 18.3526 5.58712 19.1026 6.50378 19.1026C7.42045 19.1026 8.17045 18.3526 8.17045 17.4359C8.17045 16.5192 7.42045 15.7692 6.50378 15.7692ZM14.8371 15.7692C13.9205 15.7692 13.1788 16.5192 13.1788 17.4359C13.1788 18.3526 13.9205 19.1026 14.8371 19.1026C15.7538 19.1026 16.5038 18.3526 16.5038 17.4359C16.5038 16.5192 15.7538 15.7692 14.8371 15.7692Z"
              fill="currentColor"/>
    </g>
    <defs>
        <clipPath id="clip0_11662_5167">
            <rect width="20" height="20" fill="currentColor" transform="translate(0.67041 0.769287)"/>
        </clipPath>
    </defs>
</svg>
