<svg width="25" height="25" viewBox="0 0 25 25" fill="none" xmlns="http://www.w3.org/2000/svg">
    <g clip-path="url(#clip0_8386_70259)">
        <path d="M15.9624 14.1699H15.1724L14.8924 13.8999C15.8724 12.7599 16.4624 11.2799 16.4624 9.66992C16.4624 6.07992 13.5524 3.16992 9.9624 3.16992C6.3724 3.16992 3.4624 6.07992 3.4624 9.66992C3.4624 13.2599 6.3724 16.1699 9.9624 16.1699C11.5724 16.1699 13.0524 15.5799 14.1924 14.5999L14.4624 14.8799V15.6699L19.4624 20.6599L20.9524 19.1699L15.9624 14.1699ZM9.9624 14.1699C7.4724 14.1699 5.4624 12.1599 5.4624 9.66992C5.4624 7.17992 7.4724 5.16992 9.9624 5.16992C12.4524 5.16992 14.4624 7.17992 14.4624 9.66992C14.4624 12.1599 12.4524 14.1699 9.9624 14.1699Z"
              fill="currentColor" fill-opacity="0.6"/>
    </g>
    <defs>
        <clipPath id="clip0_8386_70259">
            <rect width="24" height="24" fill="white" transform="translate(0.462402 0.169922)"/>
        </clipPath>
    </defs>
</svg>
