<svg width="20" height="21" viewBox="0 0 20 21" fill="none" xmlns="http://www.w3.org/2000/svg">
    <g clip-path="url(#clip0_11662_2280)">
        <path d="M15.0002 5.76925H13.3335C13.3335 3.92758 11.8418 2.43591 10.0002 2.43591C8.1585 2.43591 6.66683 3.92758 6.66683 5.76925H5.00016C4.0835 5.76925 3.3335 6.51925 3.3335 7.43591V17.4359C3.3335 18.3526 4.0835 19.1026 5.00016 19.1026H15.0002C15.9168 19.1026 16.6668 18.3526 16.6668 17.4359V7.43591C16.6668 6.51925 15.9168 5.76925 15.0002 5.76925ZM10.0002 4.10258C10.9168 4.10258 11.6668 4.85258 11.6668 5.76925H8.3335C8.3335 4.85258 9.0835 4.10258 10.0002 4.10258ZM15.0002 17.4359H5.00016V7.43591H6.66683V9.10258C6.66683 9.56091 7.04183 9.93591 7.50016 9.93591C7.9585 9.93591 8.3335 9.56091 8.3335 9.10258V7.43591H11.6668V9.10258C11.6668 9.56091 12.0418 9.93591 12.5002 9.93591C12.9585 9.93591 13.3335 9.56091 13.3335 9.10258V7.43591H15.0002V17.4359Z"
              fill="currentColor" fill-opacity="0.6"/>
    </g>
    <defs>
        <clipPath id="clip0_11662_2280">
            <rect width="20" height="20" fill="currentColor" transform="translate(0 0.769287)"/>
        </clipPath>
    </defs>
</svg>
