<svg xmlns="http://www.w3.org/2000/svg" width="19" height="19" viewBox="0 0 19 19" fill="none">
  <path d="M9.49999 11.8561C10.1944 11.8561 10.7847 11.6131 11.2708 11.127C11.7569 10.6408 12 10.0506 12 9.35612C12 8.66167 11.7569 8.0714 11.2708 7.58529C10.7847 7.09917 10.1944 6.85612 9.49999 6.85612C8.80555 6.85612 8.21527 7.09917 7.72916 7.58529C7.24305 8.0714 6.99999 8.66167 6.99999 9.35612C6.99999 10.0506 7.24305 10.6408 7.72916 11.127C8.21527 11.6131 8.80555 11.8561 9.49999 11.8561ZM9.49999 13.5228C8.34722 13.5228 7.36458 13.1165 6.55208 12.304C5.73958 11.4915 5.33333 10.5089 5.33333 9.35612C5.33333 8.20334 5.73958 7.2207 6.55208 6.4082C7.36458 5.5957 8.34722 5.18945 9.49999 5.18945C10.6528 5.18945 11.6354 5.5957 12.4479 6.4082C13.2604 7.2207 13.6667 8.20334 13.6667 9.35612C13.6667 10.5089 13.2604 11.4915 12.4479 12.304C11.6354 13.1165 10.6528 13.5228 9.49999 13.5228ZM3.66666 10.1895H0.333328V8.52279H3.66666V10.1895ZM18.6667 10.1895H15.3333V8.52279H18.6667V10.1895ZM8.66666 3.52279V0.189453H10.3333V3.52279H8.66666ZM8.66666 18.5228V15.1895H10.3333V18.5228H8.66666ZM4.83333 5.81445L2.72916 3.79362L3.91666 2.56445L5.91666 4.64779L4.83333 5.81445ZM15.0833 16.1478L13.0625 14.0436L14.1667 12.8978L16.2708 14.9186L15.0833 16.1478ZM13.0417 4.68945L15.0625 2.58529L16.2917 3.77279L14.2083 5.77279L13.0417 4.68945ZM2.70833 14.9395L4.81249 12.9186L5.95833 14.0228L3.93749 16.127L2.70833 14.9395Z"/>
</svg>