<svg width="20" height="21" viewBox="0 0 20 21" fill="none" xmlns="http://www.w3.org/2000/svg">
    <g clip-path="url(#clip0_11769_7543)">
        <path d="M10 5.76933C13.1584 5.76933 15.975 7.54433 17.35 10.3527C15.975 13.161 13.1584 14.936 10 14.936C6.84171 14.936 4.02504 13.161 2.65004 10.3527C4.02504 7.54433 6.84171 5.76933 10 5.76933ZM10 4.10266C5.83337 4.10266 2.27504 6.69433 0.833374 10.3527C2.27504 14.011 5.83337 16.6027 10 16.6027C14.1667 16.6027 17.725 14.011 19.1667 10.3527C17.725 6.69433 14.1667 4.10266 10 4.10266ZM10 8.26933C11.15 8.26933 12.0834 9.20266 12.0834 10.3527C12.0834 11.5027 11.15 12.436 10 12.436C8.85004 12.436 7.91671 11.5027 7.91671 10.3527C7.91671 9.20266 8.85004 8.26933 10 8.26933ZM10 6.60266C7.93337 6.60266 6.25004 8.28599 6.25004 10.3527C6.25004 12.4193 7.93337 14.1027 10 14.1027C12.0667 14.1027 13.75 12.4193 13.75 10.3527C13.75 8.28599 12.0667 6.60266 10 6.60266Z"
              fill="currentColor"/>
    </g>
    <defs>
        <clipPath id="clip0_11769_7543">
            <rect width="20" height="20" fill="white" transform="translate(0 0.769287)"/>
        </clipPath>
    </defs>
</svg>
