<svg width="48" height="48" viewBox="0 0 48 48" fill="none" xmlns="http://www.w3.org/2000/svg">
    <path d="M24 42C18.9667 42 14.7083 41.225 11.225 39.675C7.74167 38.125 6 36.2333 6 34V14C6 11.8 7.75833 9.91667 11.275 8.35C14.7917 6.78333 19.0333 6 24 6C28.9667 6 33.2083 6.78333 36.725 8.35C40.2417 9.91667 42 11.8 42 14V34C42 36.2333 40.2583 38.125 36.775 39.675C33.2917 41.225 29.0333 42 24 42ZM24 18.05C26.9667 18.05 29.95 17.625 32.95 16.775C35.95 15.925 37.6333 15.0167 38 14.05C37.6333 13.0833 35.9583 12.1667 32.975 11.3C29.9917 10.4333 27 10 24 10C20.9667 10 17.9917 10.425 15.075 11.275C12.1583 12.125 10.4667 13.05 10 14.05C10.4667 15.05 12.1583 15.9667 15.075 16.8C17.9917 17.6333 20.9667 18.05 24 18.05ZM24 28C25.4 28 26.75 27.9333 28.05 27.8C29.35 27.6667 30.5917 27.475 31.775 27.225C32.9583 26.975 34.075 26.6667 35.125 26.3C36.175 25.9333 37.1333 25.5167 38 25.05V19.05C37.1333 19.5167 36.175 19.9333 35.125 20.3C34.075 20.6667 32.9583 20.975 31.775 21.225C30.5917 21.475 29.35 21.6667 28.05 21.8C26.75 21.9333 25.4 22 24 22C22.6 22 21.2333 21.9333 19.9 21.8C18.5667 21.6667 17.3083 21.475 16.125 21.225C14.9417 20.975 13.8333 20.6667 12.8 20.3C11.7667 19.9333 10.8333 19.5167 10 19.05V25.05C10.8333 25.5167 11.7667 25.9333 12.8 26.3C13.8333 26.6667 14.9417 26.975 16.125 27.225C17.3083 27.475 18.5667 27.6667 19.9 27.8C21.2333 27.9333 22.6 28 24 28ZM24 38C25.5333 38 27.0917 37.8833 28.675 37.65C30.2583 37.4167 31.7167 37.1083 33.05 36.725C34.3833 36.3417 35.5 35.9083 36.4 35.425C37.3 34.9417 37.8333 34.45 38 33.95V29.05C37.1333 29.5167 36.175 29.9333 35.125 30.3C34.075 30.6667 32.9583 30.975 31.775 31.225C30.5917 31.475 29.35 31.6667 28.05 31.8C26.75 31.9333 25.4 32 24 32C22.6 32 21.2333 31.9333 19.9 31.8C18.5667 31.6667 17.3083 31.475 16.125 31.225C14.9417 30.975 13.8333 30.6667 12.8 30.3C11.7667 29.9333 10.8333 29.5167 10 29.05V34C10.1667 34.5 10.6917 34.9833 11.575 35.45C12.4583 35.9167 13.5667 36.3417 14.9 36.725C16.2333 37.1083 17.7 37.4167 19.3 37.65C20.9 37.8833 22.4667 38 24 38Z"
          fill="black" fill-opacity="0.6"/>
</svg>
