<svg width="48" height="46" viewBox="0 0 48 46" fill="none" xmlns="http://www.w3.org/2000/svg">
    <path d="M12 46C10.3333 46 8.91667 45.4167 7.75 44.25C6.58333 43.0833 6 41.6667 6 40C6 38.3333 6.58333 36.9167 7.75 35.75C8.91667 34.5833 10.3333 34 12 34C12.4667 34 12.9 34.05 13.3 34.15C13.7 34.25 14.0833 34.3833 14.45 34.55L17.3 31C16.3667 29.9667 15.7167 28.8 15.35 27.5C14.9833 26.2 14.9 24.9 15.1 23.6L11.05 22.25C10.4833 23.0833 9.76667 23.75 8.9 24.25C8.03333 24.75 7.06667 25 6 25C4.33333 25 2.91667 24.4167 1.75 23.25C0.583333 22.0833 0 20.6667 0 19C0 17.3333 0.583333 15.9167 1.75 14.75C2.91667 13.5833 4.33333 13 6 13C7.66667 13 9.08333 13.5833 10.25 14.75C11.4167 15.9167 12 17.3333 12 19V19.4L16.05 20.8C16.7167 19.6 17.6083 18.5833 18.725 17.75C19.8417 16.9167 21.1 16.3833 22.5 16.15V11.8C21.2 11.4333 20.125 10.725 19.275 9.675C18.425 8.625 18 7.4 18 6C18 4.33333 18.5833 2.91667 19.75 1.75C20.9167 0.583333 22.3333 0 24 0C25.6667 0 27.0833 0.583333 28.25 1.75C29.4167 2.91667 30 4.33333 30 6C30 7.4 29.5667 8.625 28.7 9.675C27.8333 10.725 26.7667 11.4333 25.5 11.8V16.15C26.9 16.3833 28.1583 16.9167 29.275 17.75C30.3917 18.5833 31.2833 19.6 31.95 20.8L36 19.4V19C36 17.3333 36.5833 15.9167 37.75 14.75C38.9167 13.5833 40.3333 13 42 13C43.6667 13 45.0833 13.5833 46.25 14.75C47.4167 15.9167 48 17.3333 48 19C48 20.6667 47.4167 22.0833 46.25 23.25C45.0833 24.4167 43.6667 25 42 25C40.9333 25 39.9583 24.75 39.075 24.25C38.1917 23.75 37.4833 23.0833 36.95 22.25L32.9 23.6C33.1 24.9 33.0167 26.1917 32.65 27.475C32.2833 28.7583 31.6333 29.9333 30.7 31L33.55 34.5C33.9167 34.3333 34.3 34.2083 34.7 34.125C35.1 34.0417 35.5333 34 36 34C37.6667 34 39.0833 34.5833 40.25 35.75C41.4167 36.9167 42 38.3333 42 40C42 41.6667 41.4167 43.0833 40.25 44.25C39.0833 45.4167 37.6667 46 36 46C34.3333 46 32.9167 45.4167 31.75 44.25C30.5833 43.0833 30 41.6667 30 40C30 39.3333 30.1083 38.6917 30.325 38.075C30.5417 37.4583 30.8333 36.9 31.2 36.4L28.35 32.85C26.9833 33.6167 25.525 34 23.975 34C22.425 34 20.9667 33.6167 19.6 32.85L16.8 36.4C17.1667 36.9 17.4583 37.4583 17.675 38.075C17.8917 38.6917 18 39.3333 18 40C18 41.6667 17.4167 43.0833 16.25 44.25C15.0833 45.4167 13.6667 46 12 46ZM6 21C6.56667 21 7.04167 20.8083 7.425 20.425C7.80833 20.0417 8 19.5667 8 19C8 18.4333 7.80833 17.9583 7.425 17.575C7.04167 17.1917 6.56667 17 6 17C5.43333 17 4.95833 17.1917 4.575 17.575C4.19167 17.9583 4 18.4333 4 19C4 19.5667 4.19167 20.0417 4.575 20.425C4.95833 20.8083 5.43333 21 6 21ZM12 42C12.5667 42 13.0417 41.8083 13.425 41.425C13.8083 41.0417 14 40.5667 14 40C14 39.4333 13.8083 38.9583 13.425 38.575C13.0417 38.1917 12.5667 38 12 38C11.4333 38 10.9583 38.1917 10.575 38.575C10.1917 38.9583 10 39.4333 10 40C10 40.5667 10.1917 41.0417 10.575 41.425C10.9583 41.8083 11.4333 42 12 42ZM24 8C24.5667 8 25.0417 7.80833 25.425 7.425C25.8083 7.04167 26 6.56667 26 6C26 5.43333 25.8083 4.95833 25.425 4.575C25.0417 4.19167 24.5667 4 24 4C23.4333 4 22.9583 4.19167 22.575 4.575C22.1917 4.95833 22 5.43333 22 6C22 6.56667 22.1917 7.04167 22.575 7.425C22.9583 7.80833 23.4333 8 24 8ZM24 30C25.4 30 26.5833 29.5167 27.55 28.55C28.5167 27.5833 29 26.4 29 25C29 23.6 28.5167 22.4167 27.55 21.45C26.5833 20.4833 25.4 20 24 20C22.6 20 21.4167 20.4833 20.45 21.45C19.4833 22.4167 19 23.6 19 25C19 26.4 19.4833 27.5833 20.45 28.55C21.4167 29.5167 22.6 30 24 30ZM36 42C36.5667 42 37.0417 41.8083 37.425 41.425C37.8083 41.0417 38 40.5667 38 40C38 39.4333 37.8083 38.9583 37.425 38.575C37.0417 38.1917 36.5667 38 36 38C35.4333 38 34.9583 38.1917 34.575 38.575C34.1917 38.9583 34 39.4333 34 40C34 40.5667 34.1917 41.0417 34.575 41.425C34.9583 41.8083 35.4333 42 36 42ZM42 21C42.5667 21 43.0417 20.8083 43.425 20.425C43.8083 20.0417 44 19.5667 44 19C44 18.4333 43.8083 17.9583 43.425 17.575C43.0417 17.1917 42.5667 17 42 17C41.4333 17 40.9583 17.1917 40.575 17.575C40.1917 17.9583 40 18.4333 40 19C40 19.5667 40.1917 20.0417 40.575 20.425C40.9583 20.8083 41.4333 21 42 21Z"
          fill="#656565"/>
</svg>
