<svg width="40" height="40" viewBox="0 0 40 40" fill="none" xmlns="http://www.w3.org/2000/svg">
    <path d="M20 29C22.5 29 24.625 28.125 26.375 26.375C28.125 24.625 29 22.5 29 20C29 17.5 28.125 15.375 26.375 13.625C24.625 11.875 22.5 11 20 11C17.5 11 15.375 11.875 13.625 13.625C11.875 15.375 11 17.5 11 20C11 22.5 11.875 24.625 13.625 26.375C15.375 28.125 17.5 29 20 29ZM20 22C19.4333 22 18.9583 21.8083 18.575 21.425C18.1917 21.0417 18 20.5667 18 20C18 19.4333 18.1917 18.9583 18.575 18.575C18.9583 18.1917 19.4333 18 20 18C20.5667 18 21.0417 18.1917 21.425 18.575C21.8083 18.9583 22 19.4333 22 20C22 20.5667 21.8083 21.0417 21.425 21.425C21.0417 21.8083 20.5667 22 20 22ZM20 40C17.2333 40 14.6333 39.475 12.2 38.425C9.76667 37.375 7.65 35.95 5.85 34.15C4.05 32.35 2.625 30.2333 1.575 27.8C0.525 25.3667 0 22.7667 0 20C0 17.2333 0.525 14.6333 1.575 12.2C2.625 9.76667 4.05 7.65 5.85 5.85C7.65 4.05 9.76667 2.625 12.2 1.575C14.6333 0.525 17.2333 0 20 0C22.7667 0 25.3667 0.525 27.8 1.575C30.2333 2.625 32.35 4.05 34.15 5.85C35.95 7.65 37.375 9.76667 38.425 12.2C39.475 14.6333 40 17.2333 40 20C40 22.7667 39.475 25.3667 38.425 27.8C37.375 30.2333 35.95 32.35 34.15 34.15C32.35 35.95 30.2333 37.375 27.8 38.425C25.3667 39.475 22.7667 40 20 40ZM20 36C24.4667 36 28.25 34.45 31.35 31.35C34.45 28.25 36 24.4667 36 20C36 15.5333 34.45 11.75 31.35 8.65C28.25 5.55 24.4667 4 20 4C15.5333 4 11.75 5.55 8.65 8.65C5.55 11.75 4 15.5333 4 20C4 24.4667 5.55 28.25 8.65 31.35C11.75 34.45 15.5333 36 20 36Z"
          fill="black" fill-opacity="0.6"/>
</svg>
