<?xml version="1.0" encoding="utf-8"?>
<!-- Generator: Adobe Illustrator 27.6.1, SVG Export Plug-In . SVG Version: 6.00 Build 0)  -->
<svg version="1.1" id="Layer_1" xmlns="http://www.w3.org/2000/svg" xmlns:xlink="http://www.w3.org/1999/xlink" x="0px" y="0px"
	 viewBox="0 0 566.5 374.9" style="enable-background:new 0 0 566.5 374.9;" xml:space="preserve">
<style type="text/css">
	.st0{fill:#77B900;}
</style>
<path class="st0" d="M57.9,161.4c0,0,51.2-75.6,153.5-83.4V50.6C98.1,59.7,0,155.6,0,155.6s55.6,160.6,211.4,175.3v-29.1
	C97,287.4,57.9,161.4,57.9,161.4z M211.4,243.8v26.7C125,255.1,101,165.3,101,165.3s41.5-46,110.4-53.4v29.3c-0.1,0-0.1,0-0.1,0
	c-36.2-4.3-64.4,29.4-64.4,29.4S162.7,227.5,211.4,243.8 M211.4,0v50.6c3.3-0.3,6.7-0.5,10-0.6c128.8-4.3,212.7,105.6,212.7,105.6
	s-96.4,117.2-196.8,117.2c-9.2,0-17.8-0.9-25.9-2.3v31.3c7.2,0.9,14.4,1.4,21.6,1.4c93.4,0,161-47.7,226.4-104.2
	c10.8,8.7,55.3,29.8,64.4,39.1c-62.2,52.1-207.2,94.1-289.4,94.1c-7.9,0-15.5-0.5-23-1.2v43.9h355.2V0L211.4,0L211.4,0z
	 M211.4,111.9V78c3.3-0.2,6.6-0.4,10-0.5c92.6-2.9,153.4,79.6,153.4,79.6s-65.6,91.1-136,91.1c-10.1,0-19.2-1.6-27.4-4.4V141.2
	c36.1,4.4,43.3,20.3,65,56.4l48.2-40.7c0,0-35.2-46.2-94.5-46.2C223.6,110.8,217.4,111.2,211.4,111.9"/>
</svg>
